<svg xmlns="http://www.w3.org/2000/svg" width="1254" height="1254" viewBox="0 0 1254 1254" role="img" aria-labelledby="title desc">
  <title id="title">Code Braces App Icon</title>
  <desc id="desc">A dark rounded-square app icon with white curly braces surrounding a green code symbol.</desc>
  <defs>
    <radialGradient id="bgGlow" cx="50%" cy="47%" r="68%">
      <stop offset="0%" stop-color="#121d34"/>
      <stop offset="55%" stop-color="#091226"/>
      <stop offset="100%" stop-color="#030a19"/>
    </radialGradient>
    <linearGradient id="greenStroke" x1="395" y1="410" x2="852" y2="835" gradientUnits="userSpaceOnUse">
      <stop offset="0%" stop-color="#73f477"/>
      <stop offset="100%" stop-color="#62e773"/>
    </linearGradient>
    <filter id="softShadow" x="-20%" y="-20%" width="140%" height="140%">
      <feDropShadow dx="0" dy="10" stdDeviation="16" flood-color="#000712" flood-opacity="0.34"/>
    </filter>
    <filter id="glyphShadow" x="-20%" y="-20%" width="140%" height="140%">
      <feDropShadow dx="0" dy="8" stdDeviation="10" flood-color="#020713" flood-opacity="0.32"/>
    </filter>
    <filter id="innerDepth" x="-10%" y="-10%" width="120%" height="120%">
      <feDropShadow dx="0" dy="1" stdDeviation="1.5" flood-color="#ffffff" flood-opacity="0.16"/>
    </filter>
  </defs>

  <rect width="1254" height="1254" rx="215" fill="url(#bgGlow)"/>

  <g filter="url(#softShadow)">
    <path
      d="M386 358H342C312 358 290 385 290 419V542C290 590 253 624 210 624C253 624 290 660 290 708V831C290 865 312 896 342 896H386"
      fill="none"
      stroke="#ffffff"
      stroke-width="60"
      stroke-linecap="round"
      stroke-linejoin="round"
      filter="url(#innerDepth)"
    />
    <path
      d="M868 358H912C942 358 964 385 964 419V542C964 590 1001 624 1044 624C1001 624 964 660 964 708V831C964 865 942 896 912 896H868"
      fill="none"
      stroke="#ffffff"
      stroke-width="60"
      stroke-linecap="round"
      stroke-linejoin="round"
      filter="url(#innerDepth)"
    />
  </g>

  <g fill="none" stroke="url(#greenStroke)" stroke-width="58" stroke-linecap="round" stroke-linejoin="round" filter="url(#glyphShadow)">
    <path d="M497 526L404 627L497 719"/>
    <path d="M703 438L570 815"/>
    <path d="M763 533L852 626L762 718"/>
  </g>
</svg>
